<?xml version="1.0" standalone="no"?>
<!DOCTYPE svg PUBLIC "-//W3C//DTD SVG 20010904//EN"
 "http://www.w3.org/TR/2001/REC-SVG-20010904/DTD/svg10.dtd">
<svg version="1.0" xmlns="http://www.w3.org/2000/svg"
 width="320.000000pt" height="62.000000pt" viewBox="0 0 320.000000 62.000000"
 preserveAspectRatio="xMidYMid meet">

<g transform="translate(0.000000,62.000000) scale(0.100000,-0.100000)"
fill="#000000" stroke="none">
<path d="M181 610 c-18 -4 -45 -20 -60 -34 -22 -22 -27 -38 -31 -99 l-5 -72
-42 -3 -43 -3 0 -44 0 -44 43 -3 42 -3 3 -147 3 -148 54 0 55 0 0 150 0 150
44 0 c41 0 44 2 50 31 11 57 10 59 -44 59 l-50 0 0 49 c0 56 22 81 72 81 26 0
28 3 28 39 0 32 -4 40 -22 45 -28 7 -53 6 -97 -4z"/>
<path d="M2908 612 l-58 -3 0 -299 0 -300 60 0 59 0 3 97 3 96 60 -96 60 -97
53 0 c36 0 52 4 52 13 0 7 -25 52 -55 100 l-55 86 55 86 c30 46 55 89 55 95 0
5 -24 10 -54 10 l-54 0 -59 -92 -58 -93 -5 200 -5 200 -57 -3z"/>
<path d="M1530 310 l0 -300 50 0 c47 0 50 2 50 25 0 31 3 31 33 1 50 -50 149
-46 203 8 41 41 58 102 52 188 -6 77 -29 122 -79 156 -48 34 -127 27 -169 -13
l-30 -29 0 132 0 132 -55 0 -55 0 0 -300z m250 -14 c19 -21 23 -36 23 -91 0
-55 -4 -70 -23 -91 -29 -30 -78 -32 -111 -5 -21 17 -24 27 -24 96 0 69 3 79
24 96 33 27 82 25 111 -5z"/>
<path d="M400 391 c-55 -29 -80 -88 -80 -186 0 -66 4 -90 23 -125 27 -51 75
-80 132 -80 40 0 105 31 105 50 0 5 5 10 10 10 6 0 10 -11 10 -25 0 -24 3 -25
55 -25 l55 0 0 195 0 195 -55 0 c-52 0 -55 -1 -55 -25 0 -14 -4 -25 -10 -25
-5 0 -10 5 -10 10 0 19 -65 50 -105 50 -22 0 -56 -8 -75 -19z m169 -97 c16
-21 21 -41 21 -89 0 -79 -24 -115 -76 -115 -62 0 -90 49 -82 142 6 61 32 88
83 88 24 0 39 -7 54 -26z"/>
<path d="M873 400 c-71 -22 -113 -94 -113 -195 0 -72 15 -117 52 -152 45 -42
97 -57 175 -50 78 6 89 15 77 59 l-10 33 -60 -3 c-53 -3 -64 -1 -90 21 -26 23
-29 31 -29 90 0 56 4 69 25 92 23 24 30 26 90 23 l64 -3 10 33 c6 22 6 36 -2
44 -15 15 -149 20 -189 8z"/>
<path d="M1190 388 c-63 -32 -90 -88 -90 -183 0 -85 28 -150 77 -178 39 -22
122 -32 196 -23 73 9 87 21 75 65 -8 28 -13 32 -31 27 -47 -13 -107 -18 -142
-12 -28 6 -39 14 -50 39 -7 17 -11 35 -9 39 3 5 62 8 131 8 l126 0 -5 65 c-10
116 -58 167 -166 173 -55 3 -75 -1 -112 -20z m146 -66 c15 -10 34 -47 34 -66
0 -13 -14 -16 -81 -16 l-81 0 7 28 c10 42 34 62 74 62 20 0 41 -4 47 -8z"/>
<path d="M2085 399 c-39 -11 -84 -53 -101 -95 -17 -39 -18 -151 -3 -191 15
-42 68 -92 109 -103 76 -21 165 -6 214 38 73 65 73 249 0 314 -49 43 -144 59
-219 37z m125 -89 c25 -13 44 -84 35 -134 -10 -69 -61 -102 -120 -80 -57 22
-59 195 -3 217 22 9 69 7 88 -3z"/>
<path d="M2526 400 c-37 -12 -85 -56 -102 -97 -8 -18 -14 -62 -14 -98 0 -76
16 -119 56 -156 71 -64 206 -65 278 -1 76 68 73 249 -5 318 -46 41 -140 55
-213 34z m133 -99 c41 -41 34 -178 -9 -201 -24 -13 -66 -13 -90 0 -50 27 -52
170 -3 208 25 18 80 15 102 -7z"/>
</g>
</svg>
